#N canvas 120 90 1098 706 10;
#X text 28 24 Fabric Hub <-> Pure Data quick test;
#X text 28 46 Defaults: Fabric Hub OSC In = 9000 \, OSC Out = 9001;
#X text 28 68 In Fabric Hub choose the example "OSC Receive to MIDI" to hear Pd messages as MIDI output.;
#X text 28 90 Choose "MIDI In to OSC" to watch incoming MIDI from Logic arrive back in Pd below.;
#X text 40 136 Send OSC from Pd to Fabric Hub;
#X obj 43 168 loadbang;
#X obj 43 192 t b b;
#X msg 43 216 disconnect;
#X obj 137 216 del 20;
#X msg 137 240 connect 127.0.0.1 9000;
#X msg 285 240 disconnect;
#X obj 43 301 netsend -u -b;
#X msg 43 368 144 60 100;
#X msg 146 368 128 60 0;
#X msg 249 368 176 1 127;
#X text 40 342 C4 note on;
#X text 143 342 C4 note off;
#X text 251 342 CC1 full;
#X obj 43 401 oscformat fabric midi;
#X text 345 368 status data1 data2;
#X obj 571 174 udpreceive 9001;
#X obj 571 201 oscparse;
#X obj 571 228 list trim;
#X obj 571 255 route fabric;
#X obj 571 282 route midi;
#X obj 571 309 unpack f f f;
#X floatatom 571 340 5 0 0 0 status - - 0;
#X floatatom 651 340 5 0 0 0 data1 - - 0;
#X floatatom 731 340 5 0 0 0 data2 - - 0;
#X obj 571 375 print fabric_hub_in;
#X text 568 139 Receive OSC sent back out by Fabric Hub;
#X text 568 399 Pure Data should print lists like: 144 60 100;
#X text 282 216 Manual disconnect;
#X connect 5 0 6 0;
#X connect 6 0 7 0;
#X connect 6 1 8 0;
#X connect 7 0 11 0;
#X connect 8 0 9 0;
#X connect 9 0 11 0;
#X connect 10 0 11 0;
#X connect 12 0 18 0;
#X connect 13 0 18 0;
#X connect 14 0 18 0;
#X connect 18 0 11 0;
#X connect 20 0 21 0;
#X connect 21 0 22 0;
#X connect 22 0 23 0;
#X connect 23 0 24 0;
#X connect 24 0 25 0;
#X connect 25 0 26 0;
#X connect 25 1 27 0;
#X connect 25 2 28 0;
#X connect 25 0 29 0;
